<svg viewBox="0 0 30 30" xmlns="http://www.w3.org/2000/svg" xmlns:xlink="http://www.w3.org/1999/xlink" width="30.000000" height="30.000000" fill="none" customFrame="#000000">
	<path id="Vector (Stroke)" d="M0 5C0 2.23858 2.23858 0 5 0L8.75 0C11.5114 0 13.75 2.23858 13.75 5L13.75 8.75C13.75 11.5114 11.5114 13.75 8.75 13.75L5 13.75C2.23858 13.75 0 11.5114 0 8.75L0 5ZM16.25 5C16.25 2.23858 18.4886 0 21.25 0L25 0C27.7614 0 30 2.23858 30 5L30 8.75C30 11.5114 27.7614 13.75 25 13.75L21.25 13.75C18.4886 13.75 16.25 11.5114 16.25 8.75L16.25 5ZM0 21.25C0 18.4886 2.23858 16.25 5 16.25L8.75 16.25C11.5114 16.25 13.75 18.4886 13.75 21.25L13.75 25C13.75 27.7614 11.5114 30 8.75 30L5 30C2.23858 30 0 27.7614 0 25L0 21.25ZM16.25 21.25C16.25 18.4886 18.4886 16.25 21.25 16.25L25 16.25C27.7614 16.25 30 18.4886 30 21.25L30 25C30 27.7614 27.7614 30 25 30L21.25 30C18.4886 30 16.25 27.7614 16.25 25L16.25 21.25Z" fill="rgb(2,155,255)" fill-rule="evenodd" />
</svg>
