<svg viewBox="0 0 30 30" xmlns="http://www.w3.org/2000/svg" xmlns:xlink="http://www.w3.org/1999/xlink" width="30.000000" height="30.000000" fill="none" customFrame="#000000">
	<path id="Vector" d="M15 0C12.0333 2.29701e-16 9.13319 0.879734 6.66645 2.52796C4.19972 4.17618 2.27713 6.51886 1.14181 9.25975C0.00649941 12.0006 -0.290551 15.0166 0.288227 17.9264C0.867006 20.8361 2.29562 23.5088 4.3934 25.6066C6.49119 27.7044 9.16394 29.133 12.0737 29.7118C14.9834 30.2906 17.9994 29.9935 20.7403 28.8582C23.4811 27.7229 25.8238 25.8003 27.472 23.3336C29.1203 20.8668 30 17.9667 30 15C30 11.0218 28.4196 7.20644 25.6066 4.3934C22.7936 1.58035 18.9783 2.75642e-15 15 0ZM6.2069 18.1034C5.5931 18.1034 4.99308 17.9214 4.48272 17.5804C3.97236 17.2394 3.57458 16.7547 3.33969 16.1876C3.1048 15.6206 3.04334 14.9966 3.16309 14.3945C3.28283 13.7925 3.57841 13.2396 4.01243 12.8055C4.44646 12.3715 4.99944 12.0759 5.60145 11.9562C6.20346 11.8364 6.82746 11.8979 7.39454 12.1328C7.96162 12.3677 8.44631 12.7655 8.78732 13.2758C9.12834 13.7862 9.31035 14.3862 9.31035 15C9.31035 15.8231 8.98338 16.6125 8.40137 17.1945C7.81936 17.7765 7.02999 18.1034 6.2069 18.1034ZM15 18.1034C14.3862 18.1034 13.7862 17.9214 13.2758 17.5804C12.7655 17.2394 12.3677 16.7547 12.1328 16.1876C11.8979 15.6206 11.8364 14.9966 11.9562 14.3945C12.0759 13.7925 12.3715 13.2396 12.8055 12.8055C13.2396 12.3715 13.7925 12.0759 14.3946 11.9562C14.9966 11.8364 15.6206 11.8979 16.1876 12.1328C16.7547 12.3677 17.2394 12.7655 17.5804 13.2758C17.9214 13.7862 18.1035 14.3862 18.1035 15C18.1035 15.8231 17.7765 16.6125 17.1945 17.1945C16.6125 17.7765 15.8231 18.1034 15 18.1034ZM23.7931 18.1034C23.1793 18.1034 22.5793 17.9214 22.0689 17.5804C21.5586 17.2394 21.1608 16.7547 20.9259 16.1876C20.691 15.6206 20.6295 14.9966 20.7493 14.3945C20.869 13.7925 21.1646 13.2396 21.5986 12.8055C22.0327 12.3715 22.5856 12.0759 23.1877 11.9562C23.7897 11.8364 24.4137 11.8979 24.9807 12.1328C25.5478 12.3677 26.0325 12.7655 26.3735 13.2758C26.7145 13.7862 26.8966 14.3862 26.8966 15C26.8966 15.8231 26.5696 16.6125 25.9876 17.1945C25.4056 17.7765 24.6162 18.1034 23.7931 18.1034Z" fill="rgb(2,155,255)" fill-rule="nonzero" />
</svg>
