<svg viewBox="0 0 30.0002 20" xmlns="http://www.w3.org/2000/svg" xmlns:xlink="http://www.w3.org/1999/xlink" width="30.000244" height="20.000000" fill="none" customFrame="#000000">
	<path id="Vector" d="M27.3178 3.53697C23.3553 -3.01525 17.3862 1.54321 17.3862 1.54321C16.9991 1.83768 16.2852 2.07979 15.8002 2.08092L14.2014 2.08205C13.7163 2.08261 13.0025 1.8405 12.6159 1.54602C12.6159 1.54602 6.64627 -3.01356 2.68327 3.53866C-1.27861 10.0886 0.317999 17.2219 0.317999 17.2219C0.597714 18.9685 1.51965 20.134 3.25948 19.9876C4.99427 19.8418 8.75979 15.2839 8.75979 15.2839C9.07083 14.9083 9.72257 14.6015 10.2065 14.6015L19.7917 14.5998C20.2762 14.5998 20.9274 14.9067 21.2379 15.2822C21.2379 15.2822 25.0039 19.8401 26.7415 19.9859C28.4791 20.1323 29.4033 18.9657 29.6813 17.2202C29.6813 17.2202 31.2802 10.0881 27.3178 3.53697ZM11.3981 8.87018L9.34272 8.87018L9.34272 10.8639C9.34272 10.8639 8.90748 11.1984 8.23393 11.19C7.56149 11.1798 7.25716 10.8251 7.25716 10.8251L7.25716 8.87075L5.31594 8.87075C5.31594 8.87075 5.07371 8.62075 5.00882 7.96255C4.94504 7.30434 5.27678 6.77226 5.27678 6.77226L7.33269 6.77226L7.33269 4.70361C7.33269 4.70361 7.75562 4.47557 8.36372 4.49303C8.97237 4.51217 9.41824 4.74246 9.41824 4.74246L9.40985 6.77169L11.3511 6.77169C11.3511 6.77169 11.6901 7.20975 11.7181 7.73902C11.746 8.26885 11.3981 8.87018 11.3981 8.87018ZM20.8256 11.1427C19.9254 11.1427 19.1999 10.4101 19.1999 9.50531C19.1999 8.59879 19.9254 7.86795 20.8256 7.86795C21.7218 7.86795 22.4529 8.59879 22.4529 9.50531C22.4529 10.4107 21.7218 11.1427 20.8256 11.1427ZM20.8256 6.63769C19.9254 6.63769 19.1999 5.90572 19.1999 5.0009C19.1999 4.09439 19.9254 3.36355 20.8256 3.36355C21.7218 3.36355 22.4529 4.09439 22.4529 5.0009C22.4529 5.90629 21.7218 6.63769 20.8256 6.63769ZM24.877 9.05599C23.9768 9.05599 23.2513 8.32403 23.2513 7.41864C23.2513 6.51269 23.9768 5.78129 24.877 5.78129C25.7732 5.78129 26.5043 6.51269 26.5043 7.41864C26.5043 8.32403 25.7732 9.05599 24.877 9.05599Z" fill="rgb(2,155,255)" fill-rule="nonzero" />
</svg>
