<svg viewBox="0 0 30 30" xmlns="http://www.w3.org/2000/svg" xmlns:xlink="http://www.w3.org/1999/xlink" width="30.000000" height="30.000000" fill="none" customFrame="#000000">
	<path id="Vector" d="M10.2047 2.17255C9.88267 2.91101 9.444 4.00354 9.16133 5.09211C6.74867 5.22398 4.99733 5.42837 3.772 5.62156C1.86467 5.92222 0.572 7.44793 0.388 9.26573C0.203333 11.0901 0 13.9121 0 17.4725C0 21.0336 0.203333 23.8549 0.388 25.6793C0.571333 27.4965 1.86467 29.0222 3.772 29.3235C5.82533 29.6479 9.35467 30 15 30C20.6453 30 24.174 29.6479 26.228 29.3235C28.1353 29.0229 29.428 27.4971 29.612 25.6793C29.7967 23.8543 30 21.0336 30 17.4725C30 13.9114 29.7967 11.0901 29.612 9.26573C29.4287 7.44859 28.1353 5.92288 26.228 5.62156C25.0027 5.42771 23.2513 5.22464 20.8393 5.09211C20.5567 4.00354 20.118 2.91035 19.796 2.17255C19.3573 1.16772 18.446 0.353432 17.2413 0.166179C16.4996 0.0541759 15.7503 -0.00137168 15 2.57196e-05C14.0947 2.57196e-05 13.3373 0.0765091 12.7593 0.166179C11.5547 0.353432 10.6433 1.16838 10.2047 2.17255ZM15 2.63739C14.2467 2.63739 13.628 2.70068 13.1733 2.77189C12.9813 2.80156 12.7747 2.9387 12.6533 3.21826C12.3995 3.7956 12.172 4.38388 11.9713 4.98134C12.9047 4.9576 13.9142 4.94552 15 4.94508C16.0858 4.94552 17.0956 4.9576 18.0293 4.98134C17.8289 4.38389 17.6016 3.79561 17.348 3.21826C17.226 2.9387 17.0193 2.80156 16.8267 2.77189C16.2221 2.68109 15.6115 2.63613 15 2.63739ZM13.4667 23.9736C12.84 23.8899 12.4367 23.3585 12.4133 22.7328C12.3913 22.1361 12.3667 21.2657 12.3507 20.0934C11.4609 20.0828 10.5713 20.0621 9.682 20.0314C9.04933 20.0084 8.512 19.6095 8.42733 18.9897C8.36133 18.4867 8.32992 17.9798 8.33333 17.4725C8.33333 16.8409 8.374 16.3391 8.42667 15.9554C8.51133 15.3356 9.04867 14.9367 9.68133 14.9136C10.2847 14.8919 11.1647 14.8675 12.35 14.8517C12.366 13.6794 12.3907 12.809 12.4127 12.2123C12.436 11.5866 12.8393 11.0552 13.466 10.9714C13.854 10.9194 14.3613 10.8791 15 10.8791C15.6387 10.8791 16.146 10.9194 16.534 10.9714C17.1607 11.0552 17.564 11.5866 17.5873 12.2123C17.6093 12.809 17.634 13.6794 17.65 14.8517C18.8353 14.8675 19.7153 14.8919 20.3187 14.9136C20.9513 14.9367 21.4887 15.3356 21.5733 15.9554C21.626 16.3391 21.6667 16.8409 21.6667 17.4725C21.6667 18.1042 21.626 18.6059 21.5733 18.9897C21.4887 19.6095 20.9513 20.0084 20.3187 20.0314C19.7153 20.0532 18.8353 20.0776 17.65 20.0934C17.6392 20.9734 17.6183 21.8532 17.5873 22.7328C17.564 23.3585 17.1607 23.8899 16.534 23.9736C16.146 24.0257 15.6387 24.0659 15 24.0659C14.3613 24.0659 13.854 24.0257 13.466 23.9736L13.4667 23.9736Z" fill="rgb(2,155,255)" fill-rule="evenodd" />
</svg>
