<svg viewBox="0 0 18 30" xmlns="http://www.w3.org/2000/svg" xmlns:xlink="http://www.w3.org/1999/xlink" width="18.000000" height="30.000000" fill="none" customFrame="#000000">
	<path id="Vector" d="M0.660346 17.3117C1.08329 17.7524 1.65686 18 2.2549 18C2.85295 18 3.42651 17.7524 3.84946 17.3117L15.0136 5.67462L26.1778 17.3117C26.6031 17.7399 27.1729 17.9769 27.7642 17.9715C28.3556 17.9662 28.9212 17.7189 29.3394 17.283C29.7576 16.8472 29.9948 16.2575 29.9999 15.6411C30.0051 15.0247 29.7777 14.4309 29.3669 13.9875L16.6082 0.688318C16.1852 0.247588 15.6117 0 15.0136 0C14.4156 0 13.842 0.247588 13.4191 0.688318L0.660346 13.9875C0.237527 14.4283 1.50239e-15 15.0262 0 15.6496C0 16.273 0.237527 16.8708 0.660346 17.3117Z" fill="rgb(255,255,255)" fill-opacity="0.200000003" fill-rule="nonzero" transform="matrix(6.93889e-17,-1,-1,-6.93889e-17,18,30)" />
</svg>
