<svg viewBox="0 0 56 54" xmlns="http://www.w3.org/2000/svg" xmlns:xlink="http://www.w3.org/1999/xlink" width="56.000000" height="54.000000" fill="none" customFrame="#000000">
	<path id="Vector" d="M4.06399 15.3646C3.68206 15.1174 3.38136 14.7646 3.19897 14.3498L0.301919 7.94995C-0.0875623 7.02532 -0.10069 5.98682 0.265295 5.05278C0.631281 4.11874 1.34787 3.36189 2.26444 2.94135L7.66135 0.483425C8.54012 0.0114754 9.56387 -0.120696 10.535 0.112417C11.0449 0.260913 11.517 0.515585 11.9199 0.859453C12.3227 1.20332 12.6471 1.62848 12.8714 2.10658L17.544 12.3557C17.7214 12.7243 17.7976 13.1328 17.7647 13.54C17.7319 13.9472 17.5913 14.3386 17.3571 14.6745C17.1482 14.9977 16.8616 15.2644 16.5231 15.4506C16.1847 15.6368 15.8049 15.7366 15.418 15.7411L5.34839 15.7411C4.89241 15.7427 4.44593 15.6118 4.06399 15.3646ZM53.6637 4.14713L47.5892 4.14713C46.8003 4.14224 46.0332 4.40343 45.4135 4.88791C44.7937 5.37239 44.3582 6.05143 44.1782 6.81374L41.5615 17.5962C41.5302 17.727 41.4557 17.8438 41.3499 17.9278C41.2441 18.0119 41.1129 18.0584 40.9774 18.0599L2.4747 18.0599C2.10607 18.059 1.74243 18.1446 1.41352 18.3098C1.08462 18.4751 0.799776 18.7152 0.582279 19.0106C0.365172 19.3079 0.222307 19.6522 0.165442 20.015C0.108577 20.3778 0.139338 20.7488 0.255193 21.0975L6.49319 39.6479C6.64592 40.1128 6.94282 40.5179 7.34144 40.8052C7.74007 41.0926 8.22003 41.2475 8.7127 41.2479L35.2067 41.2479C35.2954 41.2451 35.3836 41.2625 35.4646 41.2987C35.5456 41.3348 35.6172 41.3888 35.6739 41.4566C35.7081 41.5333 35.7257 41.6162 35.7257 41.7001C35.7257 41.7839 35.7081 41.8668 35.6739 41.9435L35.4169 43.1029C35.3857 43.2338 35.3112 43.3506 35.2054 43.4346C35.0995 43.5187 34.9684 43.5651 34.8329 43.5667L11.4228 43.5667C10.3884 43.5895 9.38383 43.9148 8.53487 44.5018C7.68591 45.0887 7.03035 45.9113 6.65033 46.8664C6.27031 47.8216 6.18274 48.8668 6.39857 49.8711C6.6144 50.8754 7.12405 51.7941 7.86365 52.5122C8.60326 53.2303 9.53994 53.7158 10.5563 53.9079C11.5727 54.1 12.6236 53.9901 13.5774 53.5921C14.5311 53.194 15.3453 52.5254 15.9179 51.6702C16.4906 50.8149 16.7961 49.8109 16.7964 48.784C16.7974 48.7055 16.8146 48.628 16.8467 48.5563C16.8788 48.4845 16.9253 48.42 16.9833 48.3666C17.0338 48.3127 17.0954 48.2703 17.164 48.2423C17.2325 48.2143 17.3064 48.2013 17.3805 48.2043L31.3985 48.2043C31.5534 48.2043 31.7019 48.2654 31.8115 48.3741C31.921 48.4828 31.9825 48.6302 31.9825 48.784C31.9857 49.6762 32.2193 50.5527 32.6611 51.3297C33.1029 52.1067 33.7381 52.7583 34.506 53.2223C35.2738 53.6862 36.1487 53.9469 37.0471 53.9795C37.9454 54.0121 38.8372 53.8155 39.6372 53.4085C40.4372 53.0015 41.1186 52.3977 41.6164 51.6548C42.1142 50.9119 42.4117 50.0547 42.4806 49.1651C42.5494 48.2755 42.3872 47.3833 42.0095 46.5736C41.6318 45.764 41.0512 45.064 40.3232 44.5406C40.2293 44.4799 40.1579 44.3905 40.12 44.2858C40.082 44.1811 40.0795 44.0671 40.113 43.9609L48.3368 9.17892C48.3838 9.04871 48.4744 8.93849 48.5935 8.86672C48.7126 8.79495 48.853 8.766 48.991 8.78472L53.6637 8.78472C54.2833 8.78472 54.8776 8.54042 55.3157 8.10556C55.7539 7.6707 56 7.08091 56 6.46592C56 5.85094 55.7539 5.26114 55.3157 4.82629C54.8776 4.39143 54.2833 4.14713 53.6637 4.14713ZM35.1833 15.7411L22.8241 15.7411C22.3629 15.7438 21.9111 15.6109 21.5258 15.3592C21.1406 15.1075 20.839 14.7482 20.6591 14.3267C20.4792 13.9051 20.429 13.4401 20.515 12.9904C20.6009 12.5406 20.8191 12.1261 21.142 11.7992L26.9127 5.90941C27.6224 5.20567 28.5846 4.81036 29.5878 4.81036C30.591 4.81036 31.5532 5.20567 32.2629 5.90941L32.4732 6.16448L37.0991 12.0079C37.359 12.354 37.5165 12.7653 37.5536 13.1955C37.5908 13.6257 37.5062 14.0576 37.3094 14.4426C37.115 14.8364 36.812 15.1675 36.4357 15.3973C36.0594 15.6272 35.6251 15.7464 35.1833 15.7411Z" fill="rgb(2,155,255)" fill-rule="evenodd" />
</svg>
