<svg viewBox="0 0 42.5 42.5" xmlns="http://www.w3.org/2000/svg" xmlns:xlink="http://www.w3.org/1999/xlink" width="42.500000" height="42.500000" fill="none" customFrame="#000000">
	<path id="Vector" d="M41.9467 32.658C42.3055 33.0444 42.5033 33.5534 42.4997 34.0809C42.5067 34.6051 42.2914 35.1078 41.9072 35.4643L35.4298 41.907C34.6609 42.6579 33.4338 42.6579 32.6649 41.907L21.25 30.5236L9.83505 41.907C9.47423 42.2848 8.97491 42.499 8.45262 42.4998C7.92879 42.5066 7.42657 42.2912 7.07019 41.907L0.592513 35.4643C0.208347 35.1078 -0.00692839 34.6051 4.21019e-05 34.0809C-0.00354203 33.5534 0.194246 33.0444 0.553014 32.658L12.0074 21.2351L0.553014 9.81219C0.194239 9.42572 -0.00355143 8.91675 4.21019e-05 8.38926C-0.0068097 7.86505 0.208447 7.36243 0.592513 7.00587L7.07019 0.563199C7.83906 -0.187733 9.06618 -0.187733 9.83505 0.563199L21.25 11.9861L32.6649 0.563199C33.4338 -0.187733 34.6609 -0.187733 35.4298 0.563199L41.9072 7.00587C42.2913 7.36243 42.5066 7.86505 42.4997 8.38926C42.5033 8.91675 42.3055 9.42572 41.9467 9.81219L30.4923 21.2351L41.9467 32.658Z" fill="rgb(255,255,255)" fill-rule="nonzero" />
</svg>
