<svg viewBox="0 0 48 48" xmlns="http://www.w3.org/2000/svg" xmlns:xlink="http://www.w3.org/1999/xlink" width="48.000000" height="48.000000" fill="none" customFrame="#000000">
	<path id="Vector" d="M24 0C10.7541 0 0 10.7541 0 24C0 37.2459 10.7541 48 24 48C37.2459 48 48 37.2459 48 24C48 10.7541 37.2459 0 24 0ZM10.7405 38.735L9.264 40.2125C12.9162 43.535 17.6943 45.6417 22.9565 45.889L22.9565 43.799C18.2703 43.5558 14.0118 41.6817 10.7405 38.735ZM37.2595 38.735C33.9871 41.6817 29.7297 43.5558 25.0435 43.799L25.0435 45.889C30.3047 45.6417 35.0838 43.535 38.736 40.2125L37.2595 38.735ZM43.799 25.0435C43.5558 29.7297 41.6817 33.9882 38.735 37.2595L40.2125 38.736C43.535 35.0838 45.6417 30.3057 45.889 25.0435L43.799 25.0435ZM4.20104 25.0435L2.11096 25.0435C2.35826 30.3047 4.46504 35.0838 7.78748 38.736L9.26504 37.2595C6.31826 33.9871 4.44417 29.7297 4.20104 25.0435ZM27.6605 20.8696L14.6087 20.8696C14.0327 20.8696 13.5652 21.337 13.5652 21.913C13.5652 22.489 14.0327 22.9565 14.6087 22.9565L23.8456 22.9565C23.736 23.0003 21.5697 23.8111 19.7123 25.0435L14.6087 25.0435C14.0327 25.0435 13.5652 25.511 13.5652 26.087C13.5652 26.663 14.0327 27.1304 14.6087 27.1304L17.4292 27.1304C16.9659 27.792 16.6957 28.4995 16.6957 29.2174C16.6957 32.6723 19.5016 35.4783 22.9565 35.4783L25.0435 35.4783C27.0981 35.4783 28.9231 34.487 30.0647 32.9562C30.409 32.4939 30.3141 31.8397 29.8518 31.4953C29.3906 31.151 28.7363 31.247 28.392 31.7082C27.6303 32.7287 26.4136 33.3913 25.0435 33.3913L22.9565 33.3913C20.6525 33.3913 18.7826 31.5214 18.7826 29.2174C18.7826 28.8616 18.9683 28.5308 19.2177 28.2104C19.5203 27.8223 19.9242 27.4623 20.3666 27.1304L33.3913 27.1304C33.9673 27.1304 34.4348 26.663 34.4348 26.087C34.4348 25.511 33.9673 25.0435 33.3913 25.0435L24.2369 25.0435C24.3454 25.0007 26.4887 24.1878 28.3231 22.9565L33.3913 22.9565C33.9673 22.9565 34.4348 22.489 34.4348 21.913C34.4348 21.337 33.9673 20.8696 33.3913 20.8696L30.5791 20.8696C31.0372 20.208 31.3043 19.5005 31.3043 18.7826C31.3043 15.3277 28.4984 12.5217 25.0435 12.5217L22.9565 12.5217C20.8904 12.5217 19.056 13.5245 17.9165 15.0699C17.5743 15.5332 17.6723 16.1875 18.1367 16.5287C18.6 16.871 19.2532 16.7718 19.5955 16.3085C20.3562 15.2786 21.5781 14.6087 22.9565 14.6087L25.0435 14.6087C27.3475 14.6087 29.2174 16.4786 29.2174 18.7826C29.2174 19.1405 29.0337 19.4734 28.7864 19.7958C28.4901 20.1809 28.0946 20.5398 27.6605 20.8696ZM40.2125 9.264L38.735 10.7405C41.6817 14.0129 43.5558 18.2703 43.799 22.9565L45.889 22.9565C45.6417 17.6953 43.535 12.9162 40.2125 9.264ZM9.26504 10.7405L7.78748 9.264C4.46504 12.9162 2.35826 17.6943 2.11096 22.9565L4.20104 22.9565C4.44417 18.2703 6.31826 14.0118 9.26504 10.7405ZM22.9565 2.11096C17.6953 2.35826 12.9162 4.46504 9.264 7.78748L10.7405 9.26504C14.0129 6.31826 18.2703 4.44417 22.9565 4.20104L22.9565 2.11096ZM25.0435 2.11096L25.0435 4.20104C29.7297 4.44417 33.9882 6.31826 37.2595 9.26504L38.736 7.78748C35.0838 4.46504 30.3057 2.35826 25.0435 2.11096Z" fill="rgb(89.8488,226.803,55.6103)" fill-rule="evenodd" />
</svg>
